<svg xmlns="http://www.w3.org/2000/svg" width="1280" height="640" viewBox="0 0 1280 640">
  <defs>
    <linearGradient id="bg" x1="0" y1="0" x2="1" y2="1">
      <stop offset="0" stop-color="#0d1117"/>
      <stop offset="1" stop-color="#161b2e"/>
    </linearGradient>
  </defs>
  <rect width="1280" height="640" fill="url(#bg)"/>
  <!-- left accent column -->
  <rect x="0" y="0" width="14" height="640" fill="#c65d3b"/>
  <!-- terminal window -->
  <rect x="72" y="88" width="620" height="120" rx="12" fill="#1c2333" stroke="#2d3650" stroke-width="1.5"/>
  <circle cx="100" cy="114" r="7" fill="#ff5f57"/>
  <circle cx="124" cy="114" r="7" fill="#febc2e"/>
  <circle cx="148" cy="114" r="7" fill="#28c840"/>
  <text x="96" y="156" font-family="Menlo, Consolas, monospace" font-size="24" fill="#7ee787">$ /fullstack-pro-max</text>
  <text x="96" y="188" font-family="Menlo, Consolas, monospace" font-size="24" fill="#8b949e">plan · build · secure · launch</text>
  <!-- title -->
  <text x="72" y="320" font-family="Georgia, 'Times New Roman', serif" font-size="86" font-weight="bold" fill="#f0f3f8">fullstack-pro-max</text>
  <text x="72" y="374" font-family="Helvetica, Arial, sans-serif" font-size="30" fill="#9aa4b8">One Claude Code skill to ship a real web product end to end</text>
  <!-- stat row -->
  <text x="72" y="452" font-family="Helvetica, Arial, sans-serif" font-size="26" fill="#c65d3b" font-weight="bold">9 modules</text>
  <text x="222" y="452" font-family="Helvetica, Arial, sans-serif" font-size="26" fill="#5aa88f" font-weight="bold">644 data rows</text>
  <text x="420" y="452" font-family="Helvetica, Arial, sans-serif" font-size="26" fill="#d4a94f" font-weight="bold">29 references</text>
  <text x="620" y="452" font-family="Helvetica, Arial, sans-serif" font-size="26" fill="#7ea6e0" font-weight="bold">stdlib-only scripts</text>
  <!-- module chips -->
  <g font-family="Helvetica, Arial, sans-serif" font-size="22" fill="#c9d1d9">
    <rect x="72" y="490" width="150" height="44" rx="22" fill="#1c2333" stroke="#2d3650"/>
    <text x="97" y="519">Backend</text>
    <rect x="238" y="490" width="180" height="44" rx="22" fill="#1c2333" stroke="#2d3650"/>
    <text x="263" y="519">DB &amp; Auth</text>
    <rect x="434" y="490" width="150" height="44" rx="22" fill="#1c2333" stroke="#2d3650"/>
    <text x="459" y="519">DevOps</text>
    <rect x="600" y="490" width="160" height="44" rx="22" fill="#2a1e1a" stroke="#c65d3b"/>
    <text x="625" y="519" fill="#e8a189">Security</text>
    <rect x="776" y="490" width="130" height="44" rx="22" fill="#1c2333" stroke="#2d3650"/>
    <text x="801" y="519">UI/UX</text>
    <rect x="922" y="490" width="110" height="44" rx="22" fill="#1c2333" stroke="#2d3650"/>
    <text x="947" y="519">SEO</text>
    <rect x="1048" y="490" width="110" height="44" rx="22" fill="#1c2333" stroke="#2d3650"/>
    <text x="1073" y="519">Ads</text>
  </g>
  <text x="72" y="590" font-family="Menlo, Consolas, monospace" font-size="22" fill="#6e7891">github.com/0x61A/fullstack-pro-max · MIT</text>
</svg>
